<svg width="22" height="20" viewBox="0 0 22 20" fill="none" xmlns="http://www.w3.org/2000/svg">
<path d="M9.04273 1.15013L9.04312 1.14982C10.1274 0.279012 11.8676 0.284105 12.968 1.1607C12.9682 1.16081 12.9683 1.16091 12.9684 1.16102L19.5141 6.39753C19.5147 6.39799 19.5152 6.39846 19.5158 6.39892C19.893 6.70708 20.2197 7.18939 20.4305 7.74096C20.6411 8.29215 20.7196 8.86984 20.6463 9.35093L19.3874 16.8844C19.3873 16.8849 19.3872 16.8854 19.3871 16.8859C19.1375 18.3188 17.7433 19.5 16.3 19.5H5.70002C4.23555 19.5 2.87256 18.3476 2.623 16.8964C2.62294 16.8961 2.62288 16.8958 2.62282 16.8954L1.36319 9.35758L1.36299 9.35643C1.28085 8.87177 1.35458 8.29293 1.56471 7.74189C1.77482 7.19091 2.10555 6.70906 2.49187 6.40083L2.49273 6.40013L9.04273 1.15013ZM11 17.25C11.6862 17.25 12.25 16.6861 12.25 16V13C12.25 12.3138 11.6862 11.75 11 11.75C10.3139 11.75 9.75002 12.3138 9.75002 13V16C9.75002 16.6861 10.3139 17.25 11 17.25Z" stroke="#8696BB"/>
</svg>
